<svg width="27" height="25" viewBox="0 0 27 25" fill="none" xmlns="http://www.w3.org/2000/svg">
<path d="M15.7779 20.8333C15.7779 23.1345 13.8312 24.9999 11.4299 24.9999C9.02864 24.9999 7.08215 23.1345 7.08215 20.8333C7.08215 18.5321 9.02864 16.6665 11.4299 16.6665C13.8312 16.6665 15.7779 18.5321 15.7779 20.8333Z" fill="#2E8B81"/>
<path d="M19.0473 12.4179C15.3625 11.9136 12.517 8.87709 12.517 5.2085C12.517 4.1667 12.7495 3.17831 13.1615 2.28129C12.605 2.15636 12.0268 2.0835 11.4299 2.0835C7.23442 2.0835 3.82129 5.35422 3.82129 9.3751V12.2792C3.82129 14.3407 2.8789 16.2866 1.22558 17.6261C0.802841 17.9719 0.560425 18.4772 0.560425 19.0105C0.560425 20.0158 1.41366 20.8335 2.46253 20.8335H20.3973C21.4464 20.8335 22.2996 20.0158 22.2996 19.0105C22.2996 18.4772 22.0572 17.9719 21.6235 17.6168C20.0192 16.3158 19.0887 14.4271 19.0473 12.4179Z" fill="#2E8B81"/>
<path d="M25.5605 5.2084C25.5605 8.08487 23.1272 10.4166 20.1256 10.4166C17.1241 10.4166 14.6908 8.08487 14.6908 5.2084C14.6908 2.33192 17.1241 0 20.1256 0C23.1272 0 25.5605 2.33192 25.5605 5.2084Z" fill="#FF5F54"/>
</svg>
