<svg width="25" height="25" viewBox="0 0 25 25" fill="none" xmlns="http://www.w3.org/2000/svg">
<path d="M5.72913 20.3125C8.15968 19.2708 9.72218 18.4028 10.4166 17.7083C11.4583 16.6667 8.33329 16.6667 8.33329 11.4583C8.33329 7.98611 9.72218 6.25 12.5 6.25C15.2777 6.25 16.6666 7.98611 16.6666 11.4583C16.6666 16.6667 13.5416 16.6667 14.5833 17.7083C15.2777 18.4028 16.8402 19.2708 19.2708 20.3125" stroke="#2E8B81" stroke-width="2" stroke-linecap="round"/>
<path d="M12.5 22.9168C18.253 22.9168 22.9167 18.2531 22.9167 12.5002C22.9167 6.7472 18.253 2.0835 12.5 2.0835C6.74707 2.0835 2.08337 6.7472 2.08337 12.5002C2.08337 18.2531 6.74707 22.9168 12.5 22.9168Z" stroke="#2E8B81" stroke-width="2" stroke-linecap="round"/>
</svg>
